<?xml version="1.0" encoding="UTF-8"?>
<svg xmlns="http://www.w3.org/2000/svg" viewBox="0 0 960 960">
  <!-- Pixel-art heart: a clean, single-colour vector shape on a
       transparent background. Homey renders it as a monochrome mask,
       so a filled shape stays recognisable at small sizes. -->
  <g fill="#ff3366">
    <rect x="195" y="116" width="98" height="98" rx="22"/>
    <rect x="313" y="116" width="98" height="98" rx="22"/>
    <rect x="549" y="116" width="98" height="98" rx="22"/>
    <rect x="667" y="116" width="98" height="98" rx="22"/>
    <rect x="77" y="234" width="98" height="98" rx="22"/>
    <rect x="195" y="234" width="98" height="98" rx="22"/>
    <rect x="313" y="234" width="98" height="98" rx="22"/>
    <rect x="431" y="234" width="98" height="98" rx="22"/>
    <rect x="549" y="234" width="98" height="98" rx="22"/>
    <rect x="667" y="234" width="98" height="98" rx="22"/>
    <rect x="785" y="234" width="98" height="98" rx="22"/>
    <rect x="77" y="352" width="98" height="98" rx="22"/>
    <rect x="195" y="352" width="98" height="98" rx="22"/>
    <rect x="313" y="352" width="98" height="98" rx="22"/>
    <rect x="431" y="352" width="98" height="98" rx="22"/>
    <rect x="549" y="352" width="98" height="98" rx="22"/>
    <rect x="667" y="352" width="98" height="98" rx="22"/>
    <rect x="785" y="352" width="98" height="98" rx="22"/>
    <rect x="195" y="470" width="98" height="98" rx="22"/>
    <rect x="313" y="470" width="98" height="98" rx="22"/>
    <rect x="431" y="470" width="98" height="98" rx="22"/>
    <rect x="549" y="470" width="98" height="98" rx="22"/>
    <rect x="667" y="470" width="98" height="98" rx="22"/>
    <rect x="313" y="588" width="98" height="98" rx="22"/>
    <rect x="431" y="588" width="98" height="98" rx="22"/>
    <rect x="549" y="588" width="98" height="98" rx="22"/>
    <rect x="431" y="706" width="98" height="98" rx="22"/>
  </g>
</svg>
