<?xml version="1.0" encoding="UTF-8"?>
<svg xmlns="http://www.w3.org/2000/svg" viewBox="0 0 256 256">
  <rect x="20" y="20" width="216" height="216" rx="28" fill="#18181c"/>
  <g fill="#ff3366">
    <!-- 16x16 heart pattern, cells ~12px with 2px gap, starting at x=32 y=32 -->
    <!-- Row indexes derived from the python heart_pattern -->
    <g>
      <circle cx="62"  cy="56"  r="5"/>
      <circle cx="74"  cy="56"  r="5"/>
      <circle cx="110" cy="56"  r="5"/>
      <circle cx="122" cy="56"  r="5"/>
      <circle cx="158" cy="56"  r="5"/>
      <circle cx="170" cy="56"  r="5"/>

      <circle cx="50" cy="68"  r="5"/>
      <circle cx="62" cy="68"  r="5"/>
      <circle cx="74" cy="68"  r="5"/>
      <circle cx="86" cy="68"  r="5"/>
      <circle cx="98" cy="68"  r="5"/>
      <circle cx="110" cy="68" r="5"/>
      <circle cx="122" cy="68" r="5"/>
      <circle cx="134" cy="68" r="5"/>
      <circle cx="146" cy="68" r="5"/>
      <circle cx="158" cy="68" r="5"/>
      <circle cx="170" cy="68" r="5"/>
      <circle cx="182" cy="68" r="5"/>

      <circle cx="50" cy="80" r="5"/>
      <circle cx="62" cy="80" r="5"/>
      <circle cx="74" cy="80" r="5"/>
      <circle cx="86" cy="80" r="5"/>
      <circle cx="98" cy="80" r="5"/>
      <circle cx="110" cy="80" r="5"/>
      <circle cx="122" cy="80" r="5"/>
      <circle cx="134" cy="80" r="5"/>
      <circle cx="146" cy="80" r="5"/>
      <circle cx="158" cy="80" r="5"/>
      <circle cx="170" cy="80" r="5"/>
      <circle cx="182" cy="80" r="5"/>

      <circle cx="62" cy="92" r="5"/>
      <circle cx="74" cy="92" r="5"/>
      <circle cx="86" cy="92" r="5"/>
      <circle cx="98" cy="92" r="5"/>
      <circle cx="110" cy="92" r="5"/>
      <circle cx="122" cy="92" r="5"/>
      <circle cx="134" cy="92" r="5"/>
      <circle cx="146" cy="92" r="5"/>
      <circle cx="158" cy="92" r="5"/>
      <circle cx="170" cy="92" r="5"/>

      <circle cx="74" cy="104" r="5"/>
      <circle cx="86" cy="104" r="5"/>
      <circle cx="98" cy="104" r="5"/>
      <circle cx="110" cy="104" r="5"/>
      <circle cx="122" cy="104" r="5"/>
      <circle cx="134" cy="104" r="5"/>
      <circle cx="146" cy="104" r="5"/>
      <circle cx="158" cy="104" r="5"/>

      <circle cx="86" cy="116" r="5"/>
      <circle cx="98" cy="116" r="5"/>
      <circle cx="110" cy="116" r="5"/>
      <circle cx="122" cy="116" r="5"/>
      <circle cx="134" cy="116" r="5"/>
      <circle cx="146" cy="116" r="5"/>

      <circle cx="98" cy="128" r="5"/>
      <circle cx="110" cy="128" r="5"/>
      <circle cx="122" cy="128" r="5"/>
      <circle cx="134" cy="128" r="5"/>

      <circle cx="110" cy="140" r="5"/>
      <circle cx="122" cy="140" r="5"/>
    </g>
  </g>
</svg>
